<?xml version="1.0" encoding="utf-8"?>
<!-- Generator: Adobe Illustrator 24.0.1, SVG Export Plug-In . SVG Version: 6.00 Build 0)  -->
<svg version="1.1" id="Layer_1" xmlns="http://www.w3.org/2000/svg" xmlns:xlink="http://www.w3.org/1999/xlink" x="0px" y="0px"
	 viewBox="0 0 433.9 695.1" style="enable-background:new 0 0 433.9 695.1;" xml:space="preserve">
<style type="text/css">
	.st0{fill:#F39202;}
</style>
<g id="Layer_2_1_">
	<g id="Layer_1-2">
		<path class="st0" d="M137.2,0c0,0,104.2,75.8,191.5,205.3c77.8,115.2,95.7,207.3,94.8,202.1l3.3,14.2
			c19.3,83.1,0,167.3-73.8,225.8c0,0-135.3,108-271.5-0.9l-3.1-2.4C-3.7,567.2-9.1,480,7.7,418.2c14-51.6,46.8-83.4,54.5-92.5
			c41.3-49.2,69-80,63.5-144.6l0,0c0,0,18.5,10,34.4,31.7c14.6,20.1,17.2,33.6,17.2,33.6s20.3-51.8,9.1-130.9
			C177.2,51.4,137.2,0,137.2,0z"/>
	</g>
</g>
</svg>
