<svg xmlns="http://www.w3.org/2000/svg" viewBox="0 0 433.86 695.1"><defs><style>.cls-1{fill:#f39202;}.cls-2{fill:#fffef9;}.cls-3{fill:#262424;}</style></defs><g id="Layer_2" data-name="Layer 2"><g id="Layer_1-2" data-name="Layer 1"><path class="cls-1" d="M137.23,0S241.38,75.79,328.75,205.26c77.75,115.22,95.66,207.34,94.79,202.11l3.31,14.24c19.32,83.13,0,167.26-73.83,225.76,0,0-135.27,108-271.54-.88l-3.1-2.41C-3.67,567.19-9.12,480,7.69,418.17c14-51.56,46.79-83.36,54.45-92.49,41.34-49.2,69-80,63.51-144.63h0s18.54,10,34.37,31.74c14.62,20.05,17.21,33.63,17.21,33.63s20.32-51.76,9.08-130.91C177.22,51.42,137.23,0,137.23,0Z"/><ellipse class="cls-2" cx="287.17" cy="468.08" rx="76.98" ry="87.33"/><ellipse class="cls-2" cx="160.77" cy="451.64" rx="89.5" ry="104.43"/><ellipse class="cls-3" cx="281.66" cy="467.08" rx="29.32" ry="35.49"/><ellipse class="cls-3" cx="167.59" cy="459.22" rx="37.23" ry="42.71"/><ellipse class="cls-2" cx="296.52" cy="429.31" rx="9.34" ry="18.33"/><ellipse class="cls-2" cx="193.11" cy="429.31" rx="9.34" ry="18.33"/><path class="cls-2" d="M108.7,565.39S153.64,598,216.93,597c70.24-1,109.3-31.65,109.3-31.65s-22.93,83.73-109.3,83.74C134.23,649.14,108.7,565.39,108.7,565.39Z"/></g></g></svg>