<?xml version="1.0" encoding="utf-8"?>
<!-- Generator: Adobe Illustrator 27.0.0, SVG Export Plug-In . SVG Version: 6.00 Build 0)  -->
<svg version="1.0" id="Layer_1" xmlns="http://www.w3.org/2000/svg" xmlns:xlink="http://www.w3.org/1999/xlink" x="0px" y="0px"
	 viewBox="0 0 1088 688" style="enable-background:new 0 0 1088 688;" xml:space="preserve">
<path id="Path_83" style="fill:#3F3D56;" d="M961.8,454.4c-5.3,45.2-16.2,81.4-31.2,110.3c-20,38.5-54.2,54-84.8,70.3
	c-8.8,4.7-18,8.7-27.5,11.9c-55.6,19.3-117.8,14.2-166.7,4c-34.3-7.2-69.1-11.6-104.1-13.2c-10-0.4-20-0.7-30-0.7
	c-15.4,0-293.1,5.3-360.7-131.6c-16.7-33.8-28.1-75-32.2-125.3C113,238.2,176.9,144.8,259.4,83.8c156-115.4,369.8-110.6,523.4,7.9
	C885.2,170.6,981,290,961.8,454.4z"/>
<path id="Path_84" style="fill:#FFFEF9;" d="M930.6,564.8c-26.1,49-59.7,75.8-105.2,92.2c-95.4,33.2-179-6.9-270.8-9.2
	c-136.4-0.3-306.4,28.1-397.6-142.2L326,178c14.7,37.8,69.4,178.1,83,213.2c18.8-25.8,65.8-90.2,84-115.2l130.2,149.3L660,344
	c0,0,254.8,207.9,254.8,207.9C915.3,552.3,930.5,564.7,930.6,564.8z"/>
<path id="Path_85" style="opacity:0.1;enable-background:new    ;" d="M302,283l26-57l36,83l-31-60L302,283z"/>
<path id="Path_86" style="opacity:0.1;enable-background:new    ;" d="M554.5,647.8c-10-0.4-20-0.7-30-0.7L409,391.2L554.5,647.8z"
	/>
<path id="Path_87" style="opacity:0.1;enable-background:new    ;" d="M464.4,315.2L493,293l130,150L491,315L464.4,315.2z"/>
<path id="Path_88" style="opacity:0.1;enable-background:new    ;" d="M852.8,645c-8.8,4.7-18,8.7-27.5,11.9L623.2,425.2L852.8,645z
	"/>
<circle id="Ellipse_11" style="fill:#F2F2F2;" cx="482" cy="102" r="3"/>
<circle id="Ellipse_12" style="fill:#F2F2F2;" cx="399" cy="205" r="3"/>
<circle id="Ellipse_13" style="fill:#F2F2F2;" cx="602" cy="223" r="2"/>
<circle id="Ellipse_14" style="fill:#F2F2F2;" cx="182" cy="268" r="2"/>
<circle id="Ellipse_15" style="fill:#F2F2F2;" cx="614" cy="99" r="2"/>
<circle id="Ellipse_16" style="fill:#F2F2F2;" cx="738" cy="195" r="2"/>
<circle id="Ellipse_17" style="fill:#F2F2F2;" cx="860" cy="347" r="2"/>
<path id="Path_89" style="fill:#F2F2F2;" d="M306,121.2h-2.8v-2.8h-1.5v2.8H299v1.5h2.8v2.8h1.5v-2.8h2.8V121.2z"/>
<path id="Path_90" style="fill:#F2F2F2;" d="M848,424.2h-2.8v-2.8h-1.5v2.8H841v1.5h2.8v2.8h1.5v-2.8h2.8V424.2z"/>
<path id="Path_91" style="fill:#3F3D56;" d="M1088,614c0,16.6-243.6,74-544,74S0,630.5,0,614s243.6,14,544,14S1088,597.4,1088,614z"
	/>
<path id="Path_92" style="opacity:0.1;enable-background:new    ;" d="M1088,614c0,16.6-243.6,74-544,74S0,630.5,0,614
	s243.6,14,544,14S1088,597.4,1088,614z"/>
<ellipse id="Ellipse_18" style="fill:#3F3D56;" cx="544" cy="614" rx="544" ry="30"/>
<path id="Path_93" style="fill:#FF6584;" d="M568,572c0,33.1-14.8,24-33,24s-33,9.1-33-24s33-96,33-96S568,538.8,568,572z"/>
<path id="Path_94" style="opacity:0.1;enable-background:new    ;" d="M550,584.6c0,15.1-6.7,10.9-15,10.9s-15,4.2-15-10.9
	s15-43.6,15-43.6S550,569.6,550,584.6z"/>
<path id="Rectangle_97" style="fill:#2F2E41;" d="M498,605h74c5,0,9,4,9,9l0,0c0,5-4,9-9,9h-74c-5,0-9-4-9-9l0,0
	C489,609,493,605,498,605z"/>
<path id="Rectangle_98" style="fill:#2F2E41;" d="M498,587h74c5,0,9,4,9,9l0,0c0,5-4,9-9,9h-74c-5,0-9-4-9-9l0,0
	C489,591,493,587,498,587z"/>
<path id="Path_95" style="fill:#3F3D56;" d="M137,490.5c0,55.3,34.7,100.1,77.6,100.1"/>
<path id="Path_96" style="fill:#6C63FF;" d="M214.6,590.7c0-56,38.7-101.3,86.6-101.3"/>
<path id="Path_97" style="fill:#6C63FF;" d="M165.1,495.5c0,52.6,22.1,95.1,49.5,95.1"/>
<path id="Path_98" style="fill:#3F3D56;" d="M214.6,590.7c0-71.5,44.8-129.4,100.1-129.4"/>
<path id="Path_99" style="fill:#A8A8A8;" d="M198.3,591.4c0,0,11-0.3,14.3-2.7s16.9-5.2,17.8-1.4s16.5,18.8,4.1,18.9
	s-28.9-1.9-32.2-4S198.3,591.4,198.3,591.4z"/>
<path id="Path_100" style="opacity:0.2;enable-background:new    ;" d="M234.7,604.9c-12.4,0.1-28.9-1.9-32.2-4
	c-2.5-1.5-3.5-7-3.9-9.6l-0.4,0c0,0,0.7,8.9,4,10.9s19.8,4.1,32.2,4c3.6,0,4.8-1.3,4.8-3.2C238.8,604.2,237.4,604.9,234.7,604.9z"/>
<path id="Path_101" style="fill:#3F3D56;" d="M721.4,527.1c0,38,23.9,68.8,53.3,68.8"/>
<path id="Path_102" style="fill:#6C63FF;" d="M774.8,595.9c0-38.5,26.6-69.6,59.5-69.6"/>
<path id="Path_103" style="fill:#6C63FF;" d="M740.8,530.5c0,36.1,15.2,65.4,34,65.4"/>
<path id="Path_104" style="fill:#3F3D56;" d="M774.8,595.9c0-49.1,30.8-88.9,68.8-88.9"/>
<path id="Path_105" style="fill:#A8A8A8;" d="M763.5,596.3c0,0,7.6-0.2,9.8-1.9s11.6-3.6,12.2-1s11.4,12.9,2.8,13
	s-19.8-1.3-22.1-2.7S763.5,596.3,763.5,596.3z"/>
<path id="Path_106" style="opacity:0.2;enable-background:new    ;" d="M788.6,605.6c-8.5,0.1-19.8-1.3-22.1-2.7
	c-1.7-1.1-2.4-4.8-2.7-6.6l-0.3,0c0,0,0.5,6.1,2.8,7.5s13.6,2.8,22.1,2.7c2.5,0,3.3-0.9,3.3-2.2
	C791.3,605.1,790.4,605.6,788.6,605.6z"/>
<path id="Path_107" style="fill:#A8A8A8;" d="M893.8,618.7c0,0,11.4-1.7,14.5-4.6s16.9-7.5,18.2-3.7s19.5,17.4,6.6,19.1
	s-30.2,1.6-33.8-0.1S893.8,618.7,893.8,618.7z"/>
<path id="Path_108" style="opacity:0.2;enable-background:new    ;" d="M933.2,628.2c-12.9,1.7-30.2,1.6-33.8-0.1
	c-2.8-1.3-4.5-6.9-5.2-9.5l-0.4,0.1c0,0,1.8,9.1,5.5,10.8s21,1.7,33.8,0.1c3.7-0.5,4.8-2,4.5-3.9C937.3,626.9,936,627.8,933.2,628.2
	z"/>
<path id="Path_109" style="fill:#A8A8A8;" d="M614.3,617.9c0,0,9.6-1.5,12.2-3.9s14.3-6.3,15.4-3.1s16.5,14.7,5.6,16.1
	s-25.4,1.4-28.6-0.1S614.3,617.9,614.3,617.9z"/>
<path id="Path_110" style="opacity:0.2;enable-background:new    ;" d="M647.5,625.9c-10.9,1.4-25.4,1.4-28.6-0.1
	c-2.4-1.1-3.8-5.8-4.4-8l-0.3,0.1c0,0,1.5,7.7,4.7,9.1s17.7,1.5,28.6,0.1c3.1-0.4,4.1-1.7,3.8-3.3
	C651,624.8,649.9,625.6,647.5,625.9z"/>
<path id="Path_111" style="fill:#A8A8A8;" d="M122.4,613.1c0,0,7.5-1.1,9.5-3s11.1-4.9,12-2.4s12.8,11.5,4.4,12.6s-19.8,1.1-22.2,0
	S122.4,613.1,122.4,613.1z"/>
<path id="Path_112" style="opacity:0.2;enable-background:new    ;" d="M148.3,619.3c-8.4,1.1-19.8,1.1-22.2,0
	c-1.8-0.8-3-4.5-3.4-6.2l-0.2,0c0,0,1.2,6,3.6,7.1s13.8,1.1,22.2,0c2.4-0.3,3.2-1.3,3-2.6C151,618.5,150.1,619.1,148.3,619.3z"/>
<path id="Path_113" style="opacity:0.1;enable-background:new    ;" d="M383.7,601.3c0,30.2-42.1,20.9-93.7,20.9
	s-93.1,9.3-93.1-20.9s42.1-36.8,93.7-36.8S383.7,571.1,383.7,601.3z"/>
<path id="Path_114" style="fill:#3F3D56;" d="M383.7,593.9c0,30.2-42.1,20.9-93.7,20.9s-93.1,9.3-93.1-20.9s42.1-36.8,93.7-36.8
	S383.7,563.7,383.7,593.9z"/>
<g id="Layer_2_00000016757476949756812660000001916676902298411451_">
	<g id="Layer_1-2">
		<path style="fill:#F39202;" d="M357.4,324.2c0,0,43.6,31.7,80.1,85.9c32.5,48.2,40,86.7,39.7,84.5l1.4,6c8.1,34.8,0,70-30.9,94.4
			c0,0-56.6,45.2-113.6-0.4l-1.3-1c-34.3-32.2-36.6-68.6-29.6-94.5c5.9-21.6,19.6-34.9,22.8-38.7c17.3-20.6,28.9-33.5,26.6-60.5l0,0
			c0,0,7.8,4.2,14.4,13.3c6.1,8.4,7.2,14.1,7.2,14.1s8.5-21.7,3.8-54.8C374.1,345.7,357.4,324.2,357.4,324.2z"/>
		<ellipse style="fill:#FFFEF9;" cx="420.1" cy="520" rx="32.2" ry="36.5"/>
		<ellipse style="fill:#FFFEF9;" cx="367.3" cy="513.1" rx="37.4" ry="43.7"/>
		<ellipse style="fill:#262424;" cx="417.8" cy="519.6" rx="12.3" ry="14.8"/>
		<ellipse style="fill:#262424;" cx="370.1" cy="516.3" rx="15.6" ry="17.9"/>
		<ellipse style="fill:#FFFEF9;" cx="424" cy="503.8" rx="3.9" ry="7.7"/>
		<ellipse style="fill:#FFFEF9;" cx="380.8" cy="503.8" rx="3.9" ry="7.7"/>
		<path style="fill:#FFFEF9;" d="M345.5,560.7c0,0,18.8,13.6,45.3,13.2c29.4-0.4,45.7-13.2,45.7-13.2s-9.6,35-45.7,35
			C356.2,595.7,345.5,560.7,345.5,560.7z"/>
	</g>
</g>
</svg>
