<?xml version="1.0" encoding="utf-8"?>
<!-- Generator: Adobe Illustrator 27.0.0, SVG Export Plug-In . SVG Version: 6.00 Build 0)  -->
<svg version="1.1" id="Layer_1" xmlns="http://www.w3.org/2000/svg" xmlns:xlink="http://www.w3.org/1999/xlink" x="0px" y="0px"
	 viewBox="0 0 1129 663" style="enable-background:new 0 0 1129 663;" xml:space="preserve">
<circle style="fill:#F2F2F2;" cx="321" cy="321" r="321"/>
<ellipse style="fill:#3F3D56;" cx="559" cy="635.5" rx="514" ry="27.5"/>
<ellipse style="opacity:0.2;enable-background:new    ;" cx="558" cy="627" rx="460" ry="22"/>
<rect x="131" y="152.5" style="fill:#3F3D56;" width="840" height="50"/>
<path style="fill:#3F3D56;" d="M131,608.8c0,12,9.7,21.7,21.7,21.7c0,0,0,0,0,0h796.7c12,0,21.7-9.7,21.7-21.7c0,0,0,0,0,0V177.5
	H131V608.8z"/>
<path style="fill:#3F3D56;" d="M949.3,117.5H152.7c-12,0-21.7,9.7-21.7,21.7v0v38.3h840v-38.3C971,127.2,961.3,117.5,949.3,117.5
	C949.3,117.5,949.3,117.5,949.3,117.5z"/>
<path style="opacity:0.2;enable-background:new    ;" d="M949.3,117.5H152.7c-12,0-21.7,9.7-21.7,21.7v0v38.3h840v-38.3
	C971,127.2,961.3,117.5,949.3,117.5C949.3,117.5,949.3,117.5,949.3,117.5z"/>
<circle style="fill:#3F3D56;" cx="181" cy="147.5" r="13"/>
<circle style="fill:#3F3D56;" cx="217" cy="147.5" r="13"/>
<circle style="fill:#3F3D56;" cx="253" cy="147.5" r="13"/>
<path style="fill:#606060;" d="M173.3,213.5h326.3c2.9,0,5.3,2.4,5.3,5.3v375.3c0,2.9-2.4,5.3-5.3,5.3H173.3c-2.9,0-5.3-2.4-5.3-5.3
	V218.8C168,215.9,170.4,213.5,173.3,213.5z"/>
<path style="fill:#2E8555;" d="M608.5,272.5h273c3,0,5.5,2.5,5.5,5.5v11c0,3-2.5,5.5-5.5,5.5h-273c-3,0-5.5-2.5-5.5-5.5v-11
	C603,275,605.5,272.5,608.5,272.5z"/>
<path style="fill:#2E8555;" d="M542.5,352.5h405c3,0,5.5,2.5,5.5,5.5v4c0,3-2.5,5.5-5.5,5.5h-405c-3,0-5.5-2.5-5.5-5.5v-4
	C537,355,539.5,352.5,542.5,352.5z"/>
<path style="fill:#2E8555;" d="M542.5,396.5h405c3,0,5.5,2.5,5.5,5.5v4c0,3-2.5,5.5-5.5,5.5h-405c-3,0-5.5-2.5-5.5-5.5v-4
	C537,399,539.5,396.5,542.5,396.5z"/>
<path style="fill:#2E8555;" d="M542.5,440.5h405c3,0,5.5,2.5,5.5,5.5v4c0,3-2.5,5.5-5.5,5.5h-405c-3,0-5.5-2.5-5.5-5.5v-4
	C537,443,539.5,440.5,542.5,440.5z"/>
<path style="fill:#2E8555;" d="M542.5,484.5h405c3,0,5.5,2.5,5.5,5.5v4c0,3-2.5,5.5-5.5,5.5h-405c-3,0-5.5-2.5-5.5-5.5v-4
	C537,487,539.5,484.5,542.5,484.5z"/>
<path style="fill:#3ECC5F;" d="M872,552.5H946c3.9,0,7,3.1,7,7v11.9c0,3.9-3.1,7-7,7H872c-3.9,0-7-3.1-7-7v-11.9
	C865,555.6,868.1,552.5,872,552.5z"/>
<path style="fill:#3F3D56;" d="M1053.1,506.1c2.7-4.6,4-9.9,4-15.3c0-13.8-8.5-25-19.1-25s-19.1,11.2-19.1,25
	c-0.1,5.4,1.3,10.6,4,15.3c-5.3,9.5-5.3,21,0,30.5c-5.3,9.5-5.3,21,0,30.5c-5.3,9.5-5.3,21,0,30.5c-2.7,4.6-4,9.9-4,15.3
	c0,13.8,8.5,25,19.1,25s19.1-11.2,19.1-25c0.1-5.4-1.3-10.6-4-15.3c5.3-9.5,5.3-21,0-30.5c5.3-9.5,5.3-21,0-30.5
	C1058.4,527.2,1058.4,515.6,1053.1,506.1z"/>
<ellipse style="fill:#3F3D56;" cx="1038" cy="460.3" rx="19.1" ry="25"/>
<ellipse style="fill:#3F3D56;" cx="1038" cy="429.8" rx="19.1" ry="25"/>
<path style="fill-rule:evenodd;clip-rule:evenodd;fill:#3ECC5F;" d="M1109.4,220.8c2.6-3.3,5-6.8,7.1-10.5l-50.1-8.2l54.2,0.4
	c10.5-22.9,11.1-49.1,1.7-72.4l-72.8,37.7l67.1-49.3c-25.3-43.7-81.2-58.6-124.9-33.3c-43.7,25.3-58.6,81.2-33.3,124.9
	c2.2,3.7,4.6,7.3,7.3,10.7c-4.1,5.2-7.6,10.8-10.4,16.7l65.1,33.8L951,248c-9.9,29.3-4.4,61.6,14.7,85.8
	c-31.2,39.7-24.3,97.1,15.3,128.4c39.7,31.2,97.1,24.3,128.4-15.3c26.1-33.2,26.1-79.9,0-113C1135.5,300.7,1135.5,254,1109.4,220.8z
	"/>
<path style="opacity:0.1;enable-background:new    ;" d="M946.2,277.4c0,20.5,6.9,40.4,19.6,56.5c-31.2,39.7-24.3,97.1,15.3,128.4
	c39.7,31.2,97.1,24.3,128.4-15.3c26.1-33.2,26.1-79.9,0-113C1121.7,318.3,946.2,267.1,946.2,277.4z"/>
<g id="Layer_2_00000016757476949756812660000001916676902298411451_">
	<g id="Layer_1-2">
		<path style="fill:#F39202;" d="M305.6,261.8c0,0,40.4,29.4,74.2,79.6c30.1,44.7,37.1,80.4,36.7,78.3l1.3,5.5
			c7.5,32.2,0,64.8-28.6,87.5c0,0-52.4,41.9-105.3-0.3l-1.2-0.9c-31.8-29.8-33.9-63.6-27.4-87.6c5.4-20,18.1-32.3,21.1-35.9
			c16-19.1,26.7-31,24.6-56.1l0,0c0,0,7.2,3.9,13.3,12.3c5.7,7.8,6.7,13,6.7,13s7.9-20.1,3.5-50.7
			C321.1,281.7,305.6,261.8,305.6,261.8z"/>
		<ellipse style="fill:#FFFEF9;" cx="363.7" cy="443.2" rx="29.8" ry="33.9"/>
		<ellipse style="fill:#FFFEF9;" cx="314.7" cy="436.8" rx="34.7" ry="40.5"/>
		<ellipse style="fill:#262424;" cx="361.6" cy="442.8" rx="11.4" ry="13.8"/>
		<ellipse style="fill:#262424;" cx="317.4" cy="439.8" rx="14.4" ry="16.6"/>
		<ellipse style="fill:#FFFEF9;" cx="367.4" cy="428.2" rx="3.6" ry="7.1"/>
		<ellipse style="fill:#FFFEF9;" cx="327.3" cy="428.2" rx="3.6" ry="7.1"/>
		<path style="fill:#FFFEF9;" d="M294.5,480.9c0,0,17.4,12.6,42,12.3c27.2-0.4,42.4-12.3,42.4-12.3s-8.9,32.5-42.4,32.5
			C304.4,513.4,294.5,480.9,294.5,480.9z"/>
	</g>
</g>
</svg>
